<svg width="81" height="80" viewBox="0 0 81 80" fill="none" xmlns="http://www.w3.org/2000/svg">
<path fill-rule="evenodd" clip-rule="evenodd" d="M70.2119 51.398C72.8523 51.398 75.3329 52.4264 77.1991 54.2936C81.0515 58.146 81.0525 64.4165 77.2001 68.27C75.5672 69.9009 73.4637 70.8905 71.1956 71.1119C70.9682 73.3394 69.9945 75.4726 68.3626 77.1055C66.4964 78.9716 64.0148 80 61.3754 80H61.3744C58.7339 79.999 56.2513 78.9716 54.3852 77.1045C51.2454 73.9628 50.6657 69.2169 52.6451 65.4826L49.8815 62.7191C47.1508 63.9222 42.7226 65.2156 37.6095 65.2156H37.6075C29.7855 65.2146 22.565 62.1295 16.7273 56.2907L4.25475 43.8182C3.85869 43.5264 3.47752 43.2176 3.1291 42.8682C-0.157539 39.5816 -0.883163 34.3524 1.08525 28.1444C2.84322 22.6025 6.60633 16.7548 11.6837 11.6784C18.8863 4.47483 27.6483 0 34.5492 0C37.7594 0 40.4922 0.971797 42.5082 2.79429C42.531 2.81312 42.5546 2.83076 42.5783 2.84842C42.6194 2.87917 42.6606 2.90996 42.6978 2.94715L42.8646 3.11392C42.8659 3.11524 42.8674 3.11636 42.8689 3.11746C42.8709 3.11885 42.8728 3.1202 42.8745 3.12186C42.8768 3.12418 42.8788 3.12651 42.8808 3.12883C42.8823 3.13048 42.8838 3.13213 42.8854 3.13377L56.3834 16.6317C59.394 19.6414 61.6791 23.0045 63.175 26.6246C67.0662 36.0369 64.7752 45.2615 62.7998 49.775L65.5772 52.5525C66.9977 51.7931 68.575 51.398 70.2119 51.398ZM15.8945 15.8882C11.4802 20.3035 8.23723 25.2945 6.76316 29.944C5.51839 33.8689 5.72883 37.0434 7.33989 38.6555C8.2551 39.5707 9.63884 40.0352 11.4544 40.0352H11.4554C16.7521 40.0352 24.0738 36.1361 30.1091 30.1019C39.3377 20.8723 42.0238 10.6947 38.6627 7.33364C37.7475 6.41842 36.3637 5.95486 34.5492 5.95486C29.2515 5.95486 21.9287 9.85396 15.8945 15.8882ZM20.9391 52.079C25.7028 56.8417 31.3112 59.2587 37.6085 59.2587H37.6115C43.2031 59.2587 47.5836 57.3092 48.5514 56.7563L56.8549 48.4528C57.8793 46.7137 61.3972 37.916 57.6698 28.8998C56.4757 26.0072 54.6264 23.2973 52.1726 20.8445L45.7035 14.3754C44.7139 20.6033 40.7502 27.8823 34.3209 34.3127C28.1606 40.472 20.8636 44.6262 14.5633 45.7032L20.9391 52.079ZM68.8748 64.9674C70.2843 65.4786 71.9252 65.1203 72.9893 64.0582C74.5189 62.5275 74.5189 60.036 72.9873 58.5024C71.5152 57.0322 68.9591 57.0154 67.4712 58.4666C67.4649 58.4733 67.4584 58.4802 67.4519 58.4871C67.4247 58.516 67.3971 58.5455 67.3779 58.5639C66.82 59.1228 66.0626 59.4364 65.2725 59.4364C64.4823 59.4364 63.7259 59.1228 63.1671 58.5639L59.1657 54.5626L54.6591 59.0701L58.6595 63.0725C59.2183 63.6303 59.532 64.3887 59.532 65.1779C59.532 65.968 59.2183 66.7254 58.6595 67.2843L58.6481 67.2953C58.623 67.3195 58.5922 67.3491 58.5622 67.3766C57.0683 68.9102 57.0802 71.3749 58.5979 72.8937C59.3394 73.6342 60.3251 74.0432 61.3754 74.0432H61.3763C62.4256 74.0432 63.4103 73.6352 64.1508 72.8937C65.2199 71.8246 65.5782 70.2086 65.061 68.7782C64.6689 67.6922 64.9409 66.4772 65.7569 65.6613C66.5738 64.8443 67.7888 64.5763 68.8748 64.9674ZM22.5631 27.1181C21.9824 27.6998 21.2201 27.9906 20.4577 27.9906C19.6964 27.9906 18.933 27.6998 18.3523 27.1181C17.189 25.9557 17.189 24.0697 18.3523 22.9073L22.9155 18.3441C24.0779 17.1807 25.9639 17.1807 27.1263 18.3441C28.2897 19.5065 28.2897 21.3925 27.1263 22.5549L22.5631 27.1181Z" fill="black"/>
</svg>
