<svg xmlns="http://www.w3.org/2000/svg" viewBox="0 0 54 80"><path d="M53.602 26.801C53.602 12.023 41.579 0 26.801 0 12.023 0 0 12.023 0 26.801c0 14.096 10.941 25.677 24.776 26.717V80h4.837V53.454c13.46-1.41 23.989-12.825 23.989-26.653zM26.8 48.766c-10.256 0-18.89-7.067-21.296-16.585.046-10.847 8.24-19.015 19.101-19.015 8.392 0 15.22 6.827 15.22 15.218 0 6.446-5.246 11.691-11.692 11.692-4.89-.002-8.868-3.98-8.868-8.87a6.62 6.62 0 016.61-6.612 4.812 4.812 0 014.806 4.807c0 .897-.35 1.74-.984 2.375a3.347 3.347 0 01-2.378.986 2.418 2.418 0 000 4.836h.002a8.152 8.152 0 005.795-2.401 8.142 8.142 0 002.4-5.796c0-5.316-4.324-9.64-9.64-9.642-6.313 0-11.449 5.135-11.449 11.447 0 7.556 6.148 13.705 13.705 13.707 9.114-.002 16.53-7.416 16.53-16.529 0-11.057-8.998-20.054-20.056-20.054-6.041 0-11.49 2.135-15.66 5.702C12.936 8.47 19.45 4.836 26.8 4.836c12.112 0 21.965 9.853 21.965 21.965 0 12.11-9.853 21.965-21.965 21.965z"/></svg>