<svg width="54" height="80" viewBox="0 0 54 80" fill="none" xmlns="http://www.w3.org/2000/svg">
<path d="M53.602 26.801C53.602 12.023 41.579 0 26.801 0C12.023 0 0 12.023 0 26.801C0 40.8971 10.9413 52.4776 24.7762 53.5182V80H29.6125V53.4537C43.0726 52.0431 53.602 40.6295 53.602 26.801ZM26.8002 48.7657C16.5441 48.7657 7.91053 41.6991 5.50448 32.1806C5.54962 21.3344 13.7447 13.1659 24.6053 13.1659C32.9971 13.1668 39.8251 19.9931 39.8251 28.3841C39.8251 34.83 34.5793 40.075 28.1326 40.0758C23.2423 40.0742 19.2645 36.0955 19.2645 31.2052C19.2645 27.5603 22.2307 24.5941 25.8757 24.5941C28.5251 24.5941 30.6813 26.751 30.6813 29.4013C30.6813 30.2976 30.3315 31.1408 29.6971 31.7759C29.0612 32.4111 28.2172 32.7609 27.3185 32.7617C25.9829 32.7625 24.9003 33.8458 24.9012 35.1807C24.902 36.5155 25.9845 37.598 27.3193 37.598C27.3193 37.598 27.3193 37.598 27.3209 37.598C29.5093 37.5972 31.5672 36.7436 33.1156 35.1968C34.6648 33.6484 35.5168 31.5889 35.5168 29.4013C35.5168 24.0854 31.1923 19.7602 25.8757 19.7586C19.5627 19.7586 14.4274 24.8939 14.4274 31.206C14.4274 38.7619 20.5751 44.9112 28.1318 44.9128C37.2457 44.9112 44.6614 37.4972 44.6614 28.3841C44.6614 17.3268 35.6643 8.33048 24.6061 8.32967C18.5648 8.32967 13.1168 10.4649 8.9463 14.0316C12.9354 8.46992 19.4491 4.83627 26.8002 4.83627C38.9118 4.83627 48.7649 14.6894 48.7649 26.801C48.7657 38.9118 38.9118 48.7657 26.8002 48.7657Z" fill="black"/>
</svg>
