<svg width="76" height="80" viewBox="0 0 76 80" fill="none" xmlns="http://www.w3.org/2000/svg">
<path d="M75.6499 43.2998C75.6499 29.1399 65.6169 18.4621 52.3126 18.4621C52.2526 18.4621 52.1971 18.4756 52.1386 18.4793H16.5668C14.3632 17.5196 12.9198 16.1932 12.293 14.5234C11.0888 11.3173 13.0061 7.62006 13.042 7.55108C13.6276 6.46012 13.2212 5.1 12.1318 4.50916C11.0393 3.91832 9.67472 4.32321 9.08238 5.41491C8.97441 5.6136 6.73027 9.85444 7.61953 14.4319C3.73035 9.73598 4.57911 2.62642 4.58961 2.54095C4.75007 1.31128 3.88555 0.18359 2.65589 0.0201351C1.42398 -0.14482 0.294036 0.721944 0.129831 1.95311C0.0788447 2.33475 -1.0511 11.3728 4.42166 17.6216C6.85324 20.3981 10.1478 22.1541 14.2485 22.8709C15.2877 32.2868 23.0878 39.6925 32.6747 40.1147C32.8951 40.1874 33.1275 40.2361 33.372 40.2361C42.431 40.2361 48.2899 42.385 50.7867 46.6229C53.8369 51.8002 51.3903 59.125 49.8607 62.6782C47.6953 59.6956 42.6559 56.2308 30.8969 56.2308C29.6545 56.2308 28.6475 57.2377 28.6475 58.4801C28.6475 63.551 32.6439 66.6821 35.97 68.4112C33.6772 70.3059 31.2883 73.3381 31.2883 77.7506C31.2883 78.993 32.2953 80 33.5377 80C43.9216 80 50.5993 74.0511 51.4083 68.1053C64.8274 67.7948 75.6499 56.7916 75.6499 43.2998ZM36.2317 75.3295C37.5821 71.7965 41.5567 70.1567 41.7517 70.0772C42.6559 69.7218 43.228 68.8258 43.1733 67.8563C43.1186 66.8861 42.4445 66.0598 41.5065 65.8101C41.4368 65.7914 35.7541 64.1763 33.7994 60.8097C45.9438 61.5108 46.935 66.5802 46.995 67.0023C46.9343 70.1192 43.1358 74.423 36.2317 75.3295ZM71.0709 41.3691C70.9067 41.5903 70.777 41.8414 70.7013 42.1234C69.8428 45.304 67.5934 47.8151 64.529 49.0102C62.1026 49.9595 59.4304 49.9475 57.004 48.978C56.7918 48.8933 56.5751 48.8535 56.3585 48.8363C56.042 47.3014 55.5134 45.7906 54.6789 44.366C57.7748 43.6814 60.624 42.1324 62.9042 39.85C65.3297 37.4252 66.9193 34.3202 67.5304 31.0107C69.5038 33.9094 70.759 37.4469 71.0709 41.3691ZM18.847 23.2338C19.1881 23.2195 19.5053 23.1281 19.7909 22.9789H48.2772C47.1892 30.1356 40.9936 35.6384 33.5384 35.6384C26.171 35.6384 20.0436 30.2646 18.847 23.2338ZM44.1008 36.9985C48.826 33.9199 52.1319 28.843 52.8112 22.9744C56.7468 23.0741 60.3091 24.3525 63.2266 26.5164C63.6719 30.2421 62.3801 34.0121 59.722 36.6694C57.5109 38.882 54.5709 40.1574 51.4443 40.2609C51.3138 40.2654 51.1879 40.2864 51.0641 40.3119C49.1874 38.867 46.8675 37.7588 44.1008 36.9985ZM54.4802 63.2923C55.4564 60.8045 56.5174 57.3097 56.6981 53.623C58.044 54.0144 59.4274 54.2116 60.81 54.2116C62.6237 54.2116 64.4375 53.8749 66.165 53.2001C67.3422 52.7405 68.4414 52.1286 69.4469 51.3983C66.7798 57.5069 61.2111 62.0672 54.4802 63.2923Z" fill="black"/>
<path d="M33.4216 31.1566C35.0892 31.1566 36.4411 29.8047 36.4411 28.1372C36.4411 26.4696 35.0892 25.1177 33.4216 25.1177C31.754 25.1177 30.4022 26.4696 30.4022 28.1372C30.4022 29.8047 31.754 31.1566 33.4216 31.1566Z" fill="black"/>
</svg>
