<svg xmlns="http://www.w3.org/2000/svg" viewBox="0 0 76 80"><path d="M75.65 43.3c0-14.16-10.033-24.838-23.337-24.838-.06 0-.116.014-.174.017H16.567c-2.204-.96-3.647-2.286-4.274-3.956-1.204-3.206.713-6.903.749-6.972a2.25 2.25 0 00-3.96-2.136c-.108.199-2.352 4.44-1.462 9.017C3.73 9.736 4.58 2.626 4.59 2.54a2.249 2.249 0 00-4.46-.588c-.051.382-1.181 9.42 4.292 15.669 2.431 2.776 5.726 4.532 9.826 5.249 1.04 9.416 8.84 16.822 18.427 17.244.22.072.453.121.697.121 9.059 0 14.918 2.149 17.415 6.387 3.05 5.177.603 12.502-.926 16.055-2.166-2.982-7.205-6.447-18.964-6.447a2.25 2.25 0 00-2.25 2.25c0 5.07 3.997 8.201 7.323 9.93-2.293 1.895-4.682 4.927-4.682 9.34A2.25 2.25 0 0033.538 80c10.384 0 17.061-5.949 17.87-11.895 13.42-.31 24.242-11.313 24.242-24.805zM36.232 75.33c1.35-3.534 5.325-5.173 5.52-5.253a2.249 2.249 0 00-.245-4.267c-.07-.019-5.753-1.634-7.708-5 12.145.7 13.136 5.77 13.196 6.192-.06 3.117-3.86 7.421-10.763 8.328zM71.07 41.37a2.234 2.234 0 00-.37.753c-.858 3.181-3.108 5.692-6.172 6.887-2.426.95-5.099.938-7.525-.032a2.19 2.19 0 00-.645-.142c-.317-1.535-.846-3.045-1.68-4.47a16.704 16.704 0 008.225-4.516 16.821 16.821 0 004.626-8.84c1.974 2.9 3.229 6.437 3.54 10.36zM18.847 23.233c.341-.015.658-.106.944-.255h28.486c-1.088 7.157-7.283 12.66-14.739 12.66-7.367 0-13.494-5.374-14.691-12.405zm25.254 13.764c4.725-3.078 8.03-8.155 8.71-14.024 3.936.1 7.498 1.378 10.416 3.542a12.332 12.332 0 01-3.505 10.153 12.235 12.235 0 01-8.278 3.592c-.13.004-.256.025-.38.05-1.877-1.444-4.197-2.552-6.963-3.313zm10.38 26.294c.975-2.488 2.036-5.982 2.217-9.669 1.346.391 2.73.589 4.112.589a14.665 14.665 0 008.637-2.813C66.78 57.506 61.21 62.066 54.48 63.291z"/><path d="M33.422 31.157a3.02 3.02 0 100-6.04 3.02 3.02 0 000 6.04z"/></svg>