<svg xmlns="http://www.w3.org/2000/svg" viewBox="0 0 80 80"><path fill-rule="evenodd" d="M42.182 37.818H80V40c0 22.056-17.945 40-40 40C17.943 80 0 62.056 0 40S17.944 0 40 0h2.182v37.818zm-2.184 28.97c14.037 0 25.587-10.852 26.702-24.606H37.817V13.3C24.063 14.414 13.21 25.964 13.21 40c0 14.772 12.017 26.788 26.788 26.788zM4.364 40c0 19.65 15.985 35.636 35.635 35.636 18.917 0 34.44-14.816 35.57-33.454h-4.502c-1.124 16.163-14.624 28.97-31.068 28.97C22.822 71.152 8.848 57.178 8.848 40c0-16.443 12.807-29.942 28.97-31.067V4.43C19.18 5.56 4.364 21.083 4.364 40zm17.4-11.2a6.188 6.188 0 016.182-6.182 6.189 6.189 0 016.182 6.182 6.189 6.189 0 01-6.182 6.182 6.189 6.189 0 01-6.182-6.182zm4.364 0a1.82 1.82 0 001.818 1.818 1.82 1.82 0 001.818-1.818 1.82 1.82 0 00-1.818-1.818 1.82 1.82 0 00-1.818 1.818zm25.455 29.818a6.19 6.19 0 006.182-6.182 6.19 6.19 0 00-6.182-6.181 6.188 6.188 0 00-6.182 6.181 6.189 6.189 0 006.182 6.182zm0-8a1.82 1.82 0 011.818 1.818 1.82 1.82 0 01-1.818 1.819 1.82 1.82 0 01-1.818-1.819 1.82 1.82 0 011.818-1.818zm-30 .91a6.188 6.188 0 016.181-6.182 6.189 6.189 0 016.182 6.181 6.189 6.189 0 01-6.182 6.182 6.189 6.189 0 01-6.182-6.182zm4.363 0a1.82 1.82 0 001.818 1.818 1.82 1.82 0 001.818-1.819 1.82 1.82 0 00-1.818-1.818 1.82 1.82 0 00-1.818 1.818zm12.568 9.057l4.314-.654-.909-6-4.313.654.908 6zm-18.209-23.21l5.455.91-.718 4.304-5.454-.909.717-4.304z" clip-rule="evenodd"/></svg>