<svg width="80" height="80" viewBox="0 0 80 80" fill="none" xmlns="http://www.w3.org/2000/svg">
<path fill-rule="evenodd" clip-rule="evenodd" d="M42.1818 37.8182H71.1513H80V40C80 62.056 62.0553 80 39.9993 80C17.944 80 0 62.056 0 40C0 17.944 17.944 0 39.9993 0H42.1818V8.848V37.8182ZM39.9985 66.7884C54.0349 66.7884 65.5847 55.936 66.6996 42.1818H37.8167V13.2996C24.0633 14.4138 13.2109 25.9636 13.2109 40C13.2109 54.7716 25.2276 66.7884 39.9985 66.7884ZM4.36364 40C4.36364 59.6502 20.3491 75.6364 39.9993 75.6364C58.9156 75.6364 74.4385 60.8196 75.5695 42.1818H71.0669C69.9426 58.3447 56.4429 71.152 39.9993 71.152C22.8225 71.152 8.848 57.1775 8.848 40C8.848 23.5571 21.6553 10.0582 37.8175 8.93309V4.42982C19.1804 5.56073 4.36364 21.0829 4.36364 40ZM21.7642 28.8001C21.7642 25.3913 24.5366 22.6183 27.946 22.6183C31.3547 22.6183 34.1278 25.3913 34.1278 28.8001C34.1278 32.2088 31.3547 34.9819 27.946 34.9819C24.5373 34.9819 21.7642 32.2088 21.7642 28.8001ZM26.1278 28.8001C26.1278 29.8023 26.9431 30.6183 27.946 30.6183C28.9482 30.6183 29.7642 29.8023 29.7642 28.8001C29.7642 27.7979 28.9482 26.9819 27.946 26.9819C26.9431 26.9819 26.1278 27.7979 26.1278 28.8001ZM51.5831 58.6183C54.9911 58.6183 57.7649 55.8452 57.7649 52.4364C57.7649 49.0277 54.9911 46.2546 51.5831 46.2546C48.1736 46.2546 45.4013 49.0277 45.4013 52.4364C45.4013 55.8452 48.1744 58.6183 51.5831 58.6183ZM51.5831 50.6183C52.586 50.6183 53.4013 51.4335 53.4013 52.4364C53.4013 53.4393 52.586 54.2546 51.5831 54.2546C50.5802 54.2546 49.7649 53.4393 49.7649 52.4364C49.7649 51.4335 50.5802 50.6183 51.5831 50.6183ZM21.5824 51.5273C21.5824 48.1186 24.3547 45.3455 27.7642 45.3455C31.1729 45.3455 33.946 48.1186 33.946 51.5273C33.946 54.9361 31.1729 57.7092 27.7642 57.7092C24.3555 57.7092 21.5824 54.9361 21.5824 51.5273ZM25.946 51.5273C25.946 52.5303 26.7613 53.3455 27.7642 53.3455C28.7664 53.3455 29.5824 52.5303 29.5824 51.5273C29.5824 50.5244 28.7664 49.7092 27.7642 49.7092C26.7613 49.7092 25.946 50.5244 25.946 51.5273ZM38.5145 60.5847L42.8281 59.9311L41.9191 53.9313L37.6055 54.5849L38.5145 60.5847ZM20.3054 37.3757L25.7597 38.2848L25.0423 42.589L19.588 41.68L20.3054 37.3757Z" fill="black"/>
</svg>
