<svg width="90" height="80" viewBox="0 0 90 80" fill="none" xmlns="http://www.w3.org/2000/svg">
<path fill-rule="evenodd" clip-rule="evenodd" d="M77.3281 15.3C84.4009 17.3373 89.4604 23.8614 89.4604 31.4291C89.4604 39.9995 83.0031 47.0783 74.7001 48.087L68.1691 80H18.4388L11.7801 47.4574C4.96165 45.3213 0 38.9439 0 31.4291C0 25.0397 3.62571 19.2739 9.22091 16.4484C9.40648 7.3462 16.8674 0 26.0115 0C29.0595 0 32.0587 0.843071 34.6587 2.4045C37.2588 0.843071 40.2589 0 43.3059 0C46.354 0 49.3531 0.843071 51.9522 2.4045C54.5532 0.843071 57.5524 0 60.5984 0C69.3564 0 76.5698 6.73659 77.3281 15.3ZM23.3246 74.0147H63.2842L68.6659 47.7298C66.7792 47.2649 64.9814 46.4807 63.3551 45.3912C62.523 45.9489 61.642 46.4188 60.7311 46.8159L58.7396 68.5043L52.7783 67.9566L54.5921 48.2027C54.5226 48.205 54.4536 48.2085 54.3846 48.212C54.2704 48.2179 54.1565 48.2237 54.0414 48.2237C51.3186 48.2237 48.6747 47.5532 46.2991 46.3101V68.204H40.3128V47.4924C38.7404 47.9733 37.0932 48.2237 35.418 48.2237C34.2437 48.2237 33.0843 48.094 31.9539 47.8545L33.7977 67.9296L27.8363 68.4774L25.7371 45.6196C23.4194 47.0863 20.7845 47.9733 18.0377 48.1778L23.3246 74.0147ZM65.3765 39.3889C67.3799 41.2257 69.969 42.2374 72.6648 42.2374C78.6242 42.2374 83.4741 37.3895 83.4741 31.4291C83.4741 25.9786 79.3964 21.3711 73.9888 20.7106L71.1722 20.3664L71.3787 17.3623L71.3848 17.2757V17.2756V17.2755C71.3962 17.1166 71.4077 16.9568 71.4077 16.7956C71.4077 10.8352 66.5588 5.98631 60.5984 5.98631C58.1131 5.98631 55.7724 6.81242 53.8289 8.37684L51.9512 9.88838L50.0745 8.37684C48.1339 6.81341 45.7923 5.98631 43.3059 5.98631C40.8196 5.98631 38.478 6.81242 36.5344 8.37684L34.6567 9.88838L32.78 8.37684C30.8385 6.81341 28.4978 5.98631 26.0105 5.98631C20.0511 5.98631 15.2032 10.8352 15.2032 16.7956C15.2032 17.1687 15.2292 17.5798 15.282 18.0537L15.5494 20.4372L13.2816 21.2175C8.9176 22.719 5.98631 26.8226 5.98631 31.4291C5.98631 37.3895 10.8342 42.2374 16.7936 42.2374C19.4914 42.2374 22.0805 41.2267 24.0839 39.3889L26.1063 37.5361L28.1287 39.3889C30.1331 41.2257 32.7222 42.2374 35.418 42.2374C38.1148 42.2374 40.7039 41.2267 42.7083 39.3889L44.7307 37.5361L46.7531 39.3889C48.7575 41.2257 51.3456 42.2374 54.0414 42.2374C56.7382 42.2374 59.3273 41.2267 61.3317 39.3889L63.3541 37.5361L65.3765 39.3889ZM26.0771 26.3192L21.4215 21.3306L25.798 17.2462L30.4536 22.2348L26.0771 26.3192ZM41.1018 31.6997L47.9245 31.813L48.0239 25.8273L41.2012 25.714L41.1018 31.6997ZM62.0076 22.4141L56.4654 20.1507L59.0457 13.8326L64.5879 16.0961L62.0076 22.4141Z" fill="black"/>
</svg>
