<svg xmlns="http://www.w3.org/2000/svg" viewBox="0 0 90 80"><path fill-rule="evenodd" d="M77.328 15.3c7.073 2.037 12.132 8.561 12.132 16.13 0 8.57-6.457 15.648-14.76 16.657L68.17 80H18.438L11.78 47.457C4.962 45.321 0 38.944 0 31.43c0-6.39 3.626-12.155 9.22-14.98C9.407 7.345 16.868 0 26.012 0c3.049 0 6.048.843 8.648 2.405C37.259.843 40.259 0 43.306 0c3.048 0 6.047.843 8.646 2.405A16.84 16.84 0 0160.598 0c8.758 0 15.972 6.737 16.73 15.3zM23.325 74.015h39.96l5.38-26.285a16.717 16.717 0 01-5.31-2.339 16.66 16.66 0 01-2.624 1.425L58.74 68.504l-5.962-.547 1.814-19.754c-.07.002-.138.005-.207.009a6.633 6.633 0 01-.344.012c-2.722 0-5.366-.67-7.742-1.914v21.894h-5.986V47.492c-1.573.481-3.22.732-4.895.732-1.174 0-2.334-.13-3.464-.37l1.844 20.076-5.962.547-2.099-22.857a16.709 16.709 0 01-7.7 2.558l5.288 25.837zm42.051-34.626a10.767 10.767 0 007.289 2.848c5.96 0 10.81-4.848 10.81-10.808 0-5.45-4.079-10.058-9.486-10.718l-2.817-.345.207-3.004.006-.086c.011-.16.023-.32.023-.48 0-5.96-4.85-10.81-10.81-10.81-2.485 0-4.826.826-6.77 2.39l-1.877 1.512-1.877-1.511a10.683 10.683 0 00-6.768-2.39c-2.486 0-4.828.825-6.772 2.39l-1.877 1.511-1.877-1.511a10.685 10.685 0 00-6.77-2.39c-5.959 0-10.807 4.848-10.807 10.809 0 .373.026.784.079 1.258l.267 2.383-2.267.78A10.806 10.806 0 005.986 31.43c0 5.96 4.848 10.808 10.808 10.808 2.697 0 5.287-1.01 7.29-2.848l2.022-1.853 2.023 1.853a10.771 10.771 0 007.289 2.848c2.697 0 5.286-1.01 7.29-2.848l2.023-1.853 2.022 1.853a10.769 10.769 0 007.288 2.848c2.697 0 5.286-1.01 7.29-2.848l2.023-1.853 2.022 1.853zm-39.299-13.07l-4.655-4.988 4.376-4.085 4.656 4.989-4.377 4.084zm15.025 5.38l6.823.114.099-5.986-6.823-.113-.1 5.986zm20.906-9.285l-5.543-2.263 2.58-6.318 5.543 2.263-2.58 6.318z" clip-rule="evenodd"/></svg>